<svg width="1500" height="1500" viewBox="0 0 1500 1500" fill="none" xmlns="http://www.w3.org/2000/svg">
<rect width="1500" height="1500" fill="white"/>
<g clip-path="url(#clip0_1_98)">
<g clip-path="url(#clip1_1_98)">
<g clip-path="url(#clip2_1_98)">
<g clip-path="url(#clip3_1_98)">
<path d="M516.428 448.78C504.865 448.78 493.886 453.405 485.792 461.5L471.338 475.953L460.925 465.552C453.988 458.615 443.008 458.615 436.649 465.552C429.711 472.49 429.711 483.469 436.649 489.829L447.05 500.242L432.596 514.696C415.83 531.462 415.83 559.208 432.596 575.974C440.69 584.068 451.675 588.693 463.238 588.693C474.801 588.693 485.78 584.068 493.874 575.974L508.328 561.52L518.741 571.921C522.21 575.39 526.835 577.13 530.882 577.13C534.929 577.13 539.548 575.39 543.017 571.921C549.955 564.983 549.955 554.004 543.017 547.644L532.616 537.232L547.07 522.778C563.837 506.012 563.837 478.266 547.07 461.5C538.976 453.405 527.991 448.78 516.428 448.78ZM516.428 483.469C517.584 483.469 520.469 484.053 522.782 485.788C526.251 489.257 526.251 494.454 522.782 497.923L508.328 512.377L496.193 500.242L510.068 485.788C512.381 483.475 514.694 483.469 516.428 483.469ZM750.002 490.98C740.173 490.98 732.657 498.496 732.657 508.324V544.754H706.64C673.108 544.754 645.934 571.927 645.934 605.46C645.934 614.71 648.247 623.382 651.716 631.477H619.918C586.385 631.477 559.211 658.65 559.211 692.183C559.211 701.433 561.524 710.105 564.993 718.2H562.102C528.569 718.2 501.396 745.373 501.396 778.906C501.396 812.439 528.569 839.612 562.102 839.612H564.993C560.946 847.706 559.211 856.378 559.211 865.629C559.211 899.161 586.385 926.335 619.918 926.335H651.716C647.669 934.429 645.934 943.101 645.934 952.352C645.934 985.884 673.108 1013.06 706.64 1013.06H793.363C826.896 1013.06 854.069 985.884 854.069 952.352C854.069 943.101 851.757 934.429 848.288 926.335H880.086C913.619 926.335 940.792 899.161 940.792 865.629C940.792 856.378 938.48 847.706 935.011 839.612H937.902C971.435 839.612 998.608 812.439 998.608 778.906C998.608 745.373 971.435 718.2 937.902 718.2H935.011C939.058 710.105 940.792 701.433 940.792 692.183C940.792 658.65 913.619 631.477 880.086 631.477H848.288C852.335 623.382 854.069 614.71 854.069 605.46C854.069 571.927 826.896 544.754 793.363 544.754H767.347V508.324C767.347 498.496 759.831 490.98 750.002 490.98ZM471.338 524.518L483.473 536.66L469.02 551.113C466.707 553.426 464.4 553.426 462.666 553.426C461.509 553.426 458.607 552.848 456.294 551.113C453.982 548.223 453.993 542.441 456.884 538.972L471.338 524.518ZM706.64 579.443H770.237C775.441 586.959 778.91 595.631 778.91 605.46C778.91 615.288 775.441 623.961 770.237 631.477H706.64C692.187 631.477 680.624 619.914 680.624 605.46C680.624 591.006 692.187 579.443 706.64 579.443ZM619.918 666.166H816.49C821.693 673.682 825.162 682.354 825.162 692.183C825.162 702.011 821.693 710.684 816.49 718.2H619.918C605.464 718.2 593.901 706.637 593.901 692.183C593.901 677.729 605.464 666.166 619.918 666.166ZM562.102 752.889H619.918H643.622C637.84 760.405 634.371 769.655 634.371 779.484C634.371 788.734 637.262 797.985 643.044 804.923H619.918H562.102C547.648 804.923 536.085 793.359 536.085 778.906C536.085 764.452 547.648 752.889 562.102 752.889ZM717.053 752.889H857.538C862.742 760.405 866.211 769.077 866.211 778.906C866.211 788.734 862.164 797.407 856.96 804.923H717.625C722.829 797.985 726.298 788.734 726.298 779.484C726.298 769.655 722.835 760.405 717.053 752.889ZM619.918 839.612H816.49C821.693 847.128 825.162 855.8 825.162 865.629C825.162 875.457 821.693 884.13 816.49 891.645H793.363H706.64H619.918C605.464 891.645 593.901 880.082 593.901 865.629C593.901 851.175 605.464 839.612 619.918 839.612ZM983.576 911.303C972.013 911.303 961.028 915.928 952.934 924.022C936.167 940.788 936.167 968.534 952.934 985.3L967.387 999.754L956.986 1010.17C950.049 1017.1 950.049 1028.08 956.986 1034.44C960.455 1037.91 965.075 1039.65 969.122 1039.65C973.169 1039.65 977.794 1037.91 981.263 1034.44L991.676 1024.04L1006.13 1038.5C1014.22 1046.59 1025.2 1051.22 1036.77 1051.22C1048.33 1051.22 1059.31 1046.59 1067.41 1038.5C1084.17 1021.73 1084.17 993.984 1067.41 977.218L1052.95 962.764L1063.36 952.352C1070.29 945.414 1070.29 934.435 1063.36 928.075C1056.42 921.137 1045.44 921.137 1039.08 928.075L1028.67 938.476L1014.21 924.022C1006.12 915.928 995.139 911.303 983.576 911.303ZM706.64 926.335H770.237C775.441 933.851 778.91 942.523 778.91 952.352C778.91 962.18 775.441 970.852 770.237 978.368H706.64C692.187 978.368 680.624 966.805 680.624 952.352C680.624 937.898 692.187 926.335 706.64 926.335ZM983.576 945.992C984.732 945.992 987.623 946.576 989.935 948.31L1004.39 962.764L991.676 974.9L977.222 960.446C973.753 956.977 973.753 951.779 977.222 948.31C979.534 945.998 981.841 945.992 983.576 945.992ZM1028.09 987.619L1042.55 1002.07C1046.02 1004.96 1046.01 1010.74 1043.12 1014.21C1040.81 1016.52 1038.5 1016.53 1036.77 1016.53C1035.61 1016.53 1032.72 1015.94 1030.41 1014.21L1015.95 999.754L1028.09 987.619Z" fill="#1C4B82"/>
</g>
</g>
<path d="M151.59 367.634L180.784 380.968L176.728 389.846L256.943 426.479L260.998 417.602L290.186 430.93L259.446 498.246L230.253 484.912L234.142 476.401L171.734 447.901L249.503 520.022L237.458 546.398L132.563 536.168L194.026 564.239L197.938 555.676L227.131 569.01L200.441 627.443L171.253 614.115L175.331 605.18L95.1161 568.552L91.0381 577.481L61.8446 564.147L99.1197 482.524L163.154 489.362L115.718 446.177L151.59 367.634Z" fill="#1C4B82"/>
<path d="M399.485 279.355L405.986 273.702L427.052 297.912L388.076 331.831L379.33 321.785C379.903 326.814 379.307 332.255 377.549 338.103C375.813 343.979 372.142 349.352 366.54 354.226C359.152 360.658 351.609 363.745 343.922 363.482C336.259 363.247 329.3 359.535 323.045 352.347C306.842 333.727 314.345 310.399 345.566 282.368C342.336 279.298 339.054 278.118 335.715 278.84C332.381 279.613 328.011 282.345 322.616 287.047C318.171 290.919 313.807 295.524 309.528 300.868C305.307 306.217 301.75 311.521 298.863 316.768L275.191 289.573C279.309 283.754 284.08 277.803 289.493 271.726C294.911 265.592 300.519 259.996 306.326 254.944C321.023 242.154 333.842 235.694 344.781 235.562C355.698 235.396 365.996 240.871 375.67 251.989L399.485 279.355ZM358.751 298.136L358.001 297.271C353.556 301.143 350.646 304.711 349.277 307.982C347.88 311.275 348.378 314.293 350.767 317.037C352.221 318.709 353.923 319.614 355.87 319.752C357.812 319.889 359.707 319.15 361.557 317.541C364.129 315.307 365.16 312.501 364.662 309.127C364.163 305.754 362.193 302.094 358.751 298.136Z" fill="#1C4B82"/>
<path d="M552.858 237.429C535.561 244.377 520.251 245.287 506.935 240.161C493.601 235.001 483.463 223.769 476.515 206.472C469.556 189.14 469.11 174.013 475.181 161.098C481.241 148.148 492.862 138.222 510.056 131.32C518.401 127.969 526.855 125.913 535.418 125.152C543.981 124.395 550.98 124.613 556.409 125.816L570.854 161.779L539.582 174.334L538.276 171.087C536.666 167.072 534.633 164.483 532.187 163.326C529.725 162.129 526.683 162.255 523.063 163.71C516.03 166.533 514.071 171.82 517.181 179.558L523.447 195.171C527.256 204.656 534.559 207.228 545.355 202.886C555.407 198.848 566.65 193.058 579.085 185.509L590.551 214.061C587.161 217.526 582.029 221.484 575.156 225.94C568.317 230.379 560.883 234.205 552.858 237.429Z" fill="#1C4B82"/>
<path d="M998.355 85.6656L991.047 116.915L981.545 114.693L961.47 200.561L970.977 202.783L963.669 234.033L891.61 217.188L898.919 185.938L908.083 188.08L915.443 156.607L888.718 150.359L881.364 181.832L890.534 183.974L883.225 215.223L811.109 198.367L818.418 167.117L827.977 169.351L848.046 83.4834L838.487 81.2496L845.795 49.9999L917.911 66.8562L910.603 98.1059L901.439 95.9637L894.652 124.98L921.377 131.228L928.158 102.213L918.988 100.07L926.297 68.8208L998.355 85.6656Z" fill="#1C4B82"/>
<path d="M1143.42 196.311L1109.72 174.85L1127.29 147.249L1161 168.71L1143.42 196.311ZM1090.06 304.173L1037.51 270.712L1054.75 243.644L1062.06 248.3L1086.06 210.624L1078.74 205.968L1096.01 178.848L1141.29 207.68L1100.03 272.476L1107.29 277.098L1090.06 304.173Z" fill="#1C4B82"/>
<path d="M1210.38 426.342L1172.93 381.547L1215.99 313.371L1210.72 307.077L1235.39 286.452L1274.2 332.874L1249.53 353.499L1244.27 347.198L1221.2 380.029L1222.45 381.524L1258.85 364.639L1253.55 358.298L1278.21 337.679L1314.67 381.283L1290 401.902L1284.74 395.602L1210.38 426.342Z" fill="#1C4B82"/>
<path d="M1287.63 577.04C1281.23 559.657 1280.79 544.382 1286.3 531.22C1291.85 518.041 1303.37 508.235 1320.86 501.791C1338.38 495.336 1353.52 495.336 1366.25 501.78C1379.02 508.212 1388.6 520.12 1395.01 537.503C1401.37 554.777 1401.45 568.901 1395.25 579.875C1389.06 590.878 1379.29 598.845 1365.93 603.759L1352.73 608.622L1330.79 549.032L1329.66 549.451C1325.14 551.117 1322.29 553.695 1321.13 557.183C1319.96 560.671 1320.53 565.539 1322.83 571.788C1325.58 579.257 1328.76 586.164 1332.36 592.505C1335.96 598.845 1339.55 604.218 1343.12 608.611L1313.7 619.442C1309.78 615.994 1305.35 610.484 1300.41 602.923C1295.46 595.363 1291.2 586.737 1287.63 577.04ZM1351 541.598L1358.85 562.933L1361.06 562.12C1365.22 560.585 1367.89 558.586 1369.06 556.112C1370.25 553.678 1370.18 550.682 1368.88 547.125C1367.57 543.568 1365.64 541.26 1363.08 540.206C1360.52 539.112 1357.22 539.307 1353.2 540.785L1351 541.598Z" fill="#1C4B82"/>
<path d="M329.735 1093.34L300.541 1106.68L296.463 1097.74L216.249 1134.37L220.327 1143.3L191.139 1156.64L160.37 1089.27L189.564 1075.94L193.476 1084.5L255.826 1056.03L150.45 1067.54L138.405 1041.17L214.822 968.595L153.36 996.665L157.272 1005.23L128.078 1018.56L101.388 960.123L130.581 946.795L134.659 955.725L214.874 919.091L210.796 910.162L239.989 896.828L277.265 978.452L230.144 1022.31L293.863 1014.8L329.735 1093.34Z" fill="#1C4B82"/>
<path d="M370.132 1296.7L376.633 1302.35L355.561 1326.56L316.585 1292.64L325.331 1282.59C320.428 1283.85 314.958 1284.02 308.921 1283.08C302.861 1282.17 297.031 1279.28 291.435 1274.41C284.046 1267.98 279.945 1260.94 279.143 1253.28C278.319 1245.67 281.034 1238.26 287.288 1231.07C303.491 1212.45 327.616 1216.65 359.662 1243.67C362.285 1240.07 363.012 1236.67 361.838 1233.47C360.612 1230.27 357.302 1226.32 351.901 1221.62C347.456 1217.75 342.29 1214.07 336.408 1210.57C330.526 1207.13 324.786 1204.34 319.179 1202.21L342.851 1175.01C349.18 1178.28 355.733 1182.18 362.503 1186.71C369.301 1191.25 375.602 1196.05 381.404 1201.1C396.072 1213.86 404.257 1225.65 405.958 1236.47C407.63 1247.26 403.627 1258.21 393.953 1269.33L370.132 1296.7ZM345.904 1258.95L346.66 1258.08C342.215 1254.21 338.275 1251.83 334.85 1250.92C331.396 1250 328.475 1250.91 326.087 1253.65C324.632 1255.32 323.967 1257.13 324.105 1259.08C324.242 1261.02 325.233 1262.8 327.078 1264.41C329.649 1266.64 332.565 1267.28 335.841 1266.32C339.111 1265.36 342.467 1262.9 345.904 1258.95Z" fill="#1C4B82"/>
<path d="M510.217 1411.06C492.92 1404.11 481.235 1394.18 475.164 1381.27C469.104 1368.32 469.551 1353.2 476.493 1335.9C483.452 1318.57 493.595 1307.34 506.912 1302.21C520.229 1297.09 535.487 1297.98 552.675 1304.88C561.021 1308.23 568.558 1312.58 575.282 1317.91C581.989 1323.29 586.892 1328.29 589.985 1332.91L575.54 1368.87L544.267 1356.31L545.573 1353.06C547.171 1349.08 547.498 1345.81 546.547 1343.25C545.596 1340.68 543.311 1338.67 539.691 1337.22C532.658 1334.39 527.589 1336.85 524.479 1344.59L518.207 1360.2C514.398 1369.69 517.892 1376.59 528.694 1380.93C538.746 1384.97 550.871 1388.56 565.076 1391.71L553.603 1420.26C548.758 1420.41 542.309 1419.73 534.267 1418.19C526.26 1416.66 518.241 1414.29 510.217 1411.06Z" fill="#1C4B82"/>
<path d="M953.778 1265.97L961.08 1297.21L951.578 1299.44L971.654 1385.3L981.156 1383.08L988.464 1414.33L916.405 1431.18L909.097 1399.93L918.267 1397.79L910.907 1366.31L884.188 1372.56L891.542 1404.03L900.712 1401.89L908.02 1433.14L835.904 1450L828.596 1418.75L838.155 1416.51L818.08 1330.65L808.521 1332.88L801.218 1301.63L873.334 1284.77L880.637 1316.02L871.472 1318.17L878.254 1347.18L904.973 1340.93L898.192 1311.92L889.022 1314.07L881.719 1282.82L953.778 1265.97Z" fill="#1C4B82"/>
<path d="M1073.39 1236.03L1039.69 1257.49L1022.11 1229.89L1055.81 1208.43L1073.39 1236.03ZM1148.54 1330.01L1096 1363.47L1078.76 1336.4L1086.08 1331.75L1062.09 1294.07L1054.78 1298.73L1037.51 1271.61L1082.79 1242.77L1124.05 1307.57L1131.31 1302.94L1148.54 1330.01Z" fill="#1C4B82"/>
<path d="M1293.93 1185.84L1256.48 1230.63L1181.76 1200.33L1176.49 1206.63L1151.83 1186.01L1190.64 1139.59L1215.3 1160.21L1210.04 1166.51L1246.43 1183.39L1247.69 1181.9L1224.62 1149.06L1219.32 1155.41L1194.65 1134.79L1231.11 1091.18L1255.78 1111.8L1250.47 1118.15L1293.93 1185.84Z" fill="#1C4B82"/>
<path d="M1395 1004.82C1388.59 1022.2 1379.03 1034.12 1366.3 1040.56C1353.53 1046.99 1338.4 1046.99 1320.9 1040.55C1303.38 1034.1 1291.86 1024.28 1286.34 1011.12C1280.83 997.96 1281.27 982.684 1287.68 965.301C1294.04 948.027 1303.12 937.219 1314.91 932.872C1326.75 928.542 1339.34 928.834 1352.7 933.754L1365.91 938.616L1343.98 998.149L1345.11 998.561C1349.64 1000.23 1353.48 1000.11 1356.62 998.212C1359.77 996.31 1362.49 992.238 1364.79 985.989C1367.54 978.52 1369.61 971.201 1370.98 964.041C1372.35 956.882 1373.1 950.484 1373.21 944.854L1402.63 955.69C1403.39 960.822 1403.2 967.873 1402.06 976.831C1400.91 985.829 1398.55 995.159 1395 1004.82ZM1323.78 990.709L1331.64 969.374L1329.43 968.56C1325.26 967.025 1321.93 966.819 1319.44 967.942C1316.96 969.024 1315.06 971.35 1313.76 974.901C1312.44 978.457 1312.42 981.464 1313.68 983.927C1314.92 986.425 1317.55 988.412 1321.57 989.895L1323.78 990.709Z" fill="#1C4B82"/>
<path d="M70.7969 771.165C70.7969 739.022 96.8574 712.961 129.001 712.961C161.144 712.961 187.204 739.022 187.204 771.165C187.204 803.308 161.144 829.369 129.001 829.369C96.8574 829.369 70.7969 803.308 70.7969 771.165Z" fill="#1C4B82"/>
<path d="M1321.75 771.165C1321.75 739.022 1347.81 712.961 1379.95 712.961C1412.09 712.961 1438.15 739.022 1438.15 771.165C1438.15 803.308 1412.09 829.369 1379.95 829.369C1347.81 829.369 1321.75 803.308 1321.75 771.165Z" fill="#1C4B82"/>
</g>
</g>
<defs>
<clipPath id="clip0_1_98">
<rect width="1400" height="1400" fill="white" transform="translate(50 50)"/>
</clipPath>
<clipPath id="clip1_1_98">
<rect width="1400" height="1400" fill="white" transform="translate(50 50)"/>
</clipPath>
<clipPath id="clip2_1_98">
<rect width="659.966" height="602.431" fill="white" transform="translate(420.017 448.784)"/>
</clipPath>
<clipPath id="clip3_1_98">
<rect width="659.966" height="602.431" fill="white" transform="translate(420.017 448.784)"/>
</clipPath>
</defs>
</svg>
